<mxfile host="65bd71144e">
    <diagram id="_CM-SqTlzKt3ernuFk9R" name="画面遷移図">
        <mxGraphModel dx="372" dy="405" grid="1" gridSize="10" guides="1" tooltips="1" connect="1" arrows="1" fold="1" page="1" pageScale="1" pageWidth="827" pageHeight="1169" math="0" shadow="0">
            <root>
                <mxCell id="0"/>
                <mxCell id="1" parent="0"/>
                <mxCell id="3" value="" style="rounded=0;whiteSpace=wrap;html=1;fillColor=#f5f5f5;fontColor=#333333;strokeColor=#666666;" parent="1" vertex="1">
                    <mxGeometry x="110" y="60" width="230" height="600" as="geometry"/>
                </mxCell>
                <mxCell id="4" value="タスク名" style="text;html=1;strokeColor=none;fillColor=none;align=left;verticalAlign=middle;whiteSpace=wrap;rounded=0;" parent="1" vertex="1">
                    <mxGeometry x="160" y="110" width="60" height="30" as="geometry"/>
                </mxCell>
                <mxCell id="5" value="必須" style="rounded=0;whiteSpace=wrap;html=1;fillColor=#f8cecc;strokeColor=#b85450;" parent="1" vertex="1">
                    <mxGeometry x="130" y="115" width="30" height="20" as="geometry"/>
                </mxCell>
                <mxCell id="6" value="薔薇薔薇薔薇" style="rounded=0;whiteSpace=wrap;html=1;align=left;" parent="1" vertex="1">
                    <mxGeometry x="130" y="140" width="180" height="30" as="geometry"/>
                </mxCell>
                <mxCell id="7" value="期限" style="text;html=1;strokeColor=none;fillColor=none;align=left;verticalAlign=middle;whiteSpace=wrap;rounded=0;" parent="1" vertex="1">
                    <mxGeometry x="160" y="240" width="60" height="30" as="geometry"/>
                </mxCell>
                <mxCell id="8" value="必須" style="rounded=0;whiteSpace=wrap;html=1;fillColor=#f8cecc;strokeColor=#b85450;" parent="1" vertex="1">
                    <mxGeometry x="130" y="245" width="30" height="20" as="geometry"/>
                </mxCell>
                <mxCell id="9" value="薔薇薔薇薔薇" style="rounded=0;whiteSpace=wrap;html=1;align=left;" parent="1" vertex="1">
                    <mxGeometry x="130" y="275" width="180" height="30" as="geometry"/>
                </mxCell>
                <mxCell id="10" value="開始日" style="text;html=1;strokeColor=none;fillColor=none;align=left;verticalAlign=middle;whiteSpace=wrap;rounded=0;" parent="1" vertex="1">
                    <mxGeometry x="130" y="170" width="60" height="30" as="geometry"/>
                </mxCell>
                <mxCell id="12" value="" style="rounded=0;whiteSpace=wrap;html=1;align=left;" parent="1" vertex="1">
                    <mxGeometry x="130" y="200" width="180" height="30" as="geometry"/>
                </mxCell>
                <mxCell id="13" value="担当者" style="text;html=1;strokeColor=none;fillColor=none;align=left;verticalAlign=middle;whiteSpace=wrap;rounded=0;" parent="1" vertex="1">
                    <mxGeometry x="130" y="305" width="60" height="30" as="geometry"/>
                </mxCell>
                <mxCell id="14" value="薔薇薔薇薔薇" style="rounded=0;whiteSpace=wrap;html=1;align=left;" parent="1" vertex="1">
                    <mxGeometry x="130" y="335" width="180" height="30" as="geometry"/>
                </mxCell>
                <mxCell id="15" value="カテゴリ" style="text;html=1;strokeColor=none;fillColor=none;align=left;verticalAlign=middle;whiteSpace=wrap;rounded=0;" parent="1" vertex="1">
                    <mxGeometry x="130" y="365" width="60" height="30" as="geometry"/>
                </mxCell>
                <mxCell id="16" value="薔薇薔薇薔薇" style="rounded=0;whiteSpace=wrap;html=1;align=left;" parent="1" vertex="1">
                    <mxGeometry x="130" y="395" width="180" height="30" as="geometry"/>
                </mxCell>
                <mxCell id="18" value="説明" style="text;html=1;strokeColor=none;fillColor=none;align=left;verticalAlign=middle;whiteSpace=wrap;rounded=0;" parent="1" vertex="1">
                    <mxGeometry x="130" y="430" width="60" height="30" as="geometry"/>
                </mxCell>
                <mxCell id="19" value="薔薇薔薇薔薇" style="rounded=0;whiteSpace=wrap;html=1;align=left;verticalAlign=top;" parent="1" vertex="1">
                    <mxGeometry x="130" y="460" width="180" height="90" as="geometry"/>
                </mxCell>
                <mxCell id="20" value="登録" style="rounded=1;whiteSpace=wrap;html=1;fillColor=#666666;strokeColor=#82b366;fontColor=#FFFFFF;" parent="1" vertex="1">
                    <mxGeometry x="130" y="610" width="90" height="30" as="geometry"/>
                </mxCell>
                <mxCell id="21" value="入力情報をクリアする" style="text;html=1;strokeColor=none;fillColor=none;align=center;verticalAlign=middle;whiteSpace=wrap;rounded=0;fontSize=11;fontStyle=4;fontColor=#CCCC00;" parent="1" vertex="1">
                    <mxGeometry x="150" y="569.5" width="140" height="30" as="geometry"/>
                </mxCell>
                <mxCell id="22" value="タスク追加" style="rounded=0;whiteSpace=wrap;html=1;fontSize=11;fillColor=#A8A8A8;strokeColor=#36393d;" parent="1" vertex="1">
                    <mxGeometry x="110" y="60" width="230" height="40" as="geometry"/>
                </mxCell>
            </root>
        </mxGraphModel>
    </diagram>
</mxfile>